<svg width="341" height="374" viewBox="0 0 341 374" fill="none" xmlns="http://www.w3.org/2000/svg">
<g clip-path="url(#clip0_6_2)">
<rect width="341" height="374" fill="white"/>
<rect width="341" height="374" fill="#F8F2EB"/>
<path d="M163.5 91.5L164.5 92.5" stroke="#593838" stroke-width="2"/>
<path d="M160.5 232.5V228.862C160.5 228.036 160.008 227.289 159.248 226.964C157.184 226.079 157.816 223 160.062 223H166.719C168.906 223 169.602 225.949 167.646 226.927C166.944 227.278 166.5 227.996 166.5 228.781V232.5C166.5 234.157 165.157 235.5 163.5 235.5C161.843 235.5 160.5 234.157 160.5 232.5Z" fill="#593838" stroke="#593838" stroke-width="3"/>
<path d="M228 230.5V223C228 221.343 226.657 220 225 220H220.733C218.059 220 217.208 223.604 219.599 224.8C220.458 225.229 221 226.106 221 227.066V230.5C221 232.157 222.343 233.5 224 233.5H225C226.657 233.5 228 232.157 228 230.5Z" fill="#593838" stroke="#593838" stroke-width="3"/>
<path d="M227 218H113C111.895 218 111 218.895 111 220C111 221.105 111.895 222 113 222H227C228.105 222 229 221.105 229 220C229 218.895 228.105 218 227 218Z" fill="#593838" stroke="#593838" stroke-width="3"/>
<path d="M209.5 197V188L189 185V191L197.5 192.5" stroke="#593838" stroke-width="4"/>
<path d="M209.5 149V138.5L187.5 131V138.5L198 142.5" stroke="black"/>
<path d="M209.5 149V138.5L187.5 131V138.5L198 142.5" stroke="#593838" stroke-width="4"/>
<ellipse cx="170" cy="243.5" rx="90" ry="12.5" fill="#593838"/>
<path d="M157.596 93.3314L112.596 117.155C111.614 117.675 111 118.695 111 119.806V219C111 220.657 112.343 222 114 222H159C160.657 222 162 220.657 162 219V95.9827C162 93.722 159.594 92.2736 157.596 93.3314Z" stroke="#593838" stroke-width="4"/>
<path d="M225.5 222H166.5C164.843 222 163.5 220.657 163.5 219V95.6522C163.5 93.6074 165.501 92.1618 167.442 92.8039L226.442 112.319C227.67 112.726 228.5 113.874 228.5 115.168V219C228.5 220.657 227.157 222 225.5 222Z" stroke="#593838" stroke-width="4"/>
<path d="M142.5 101V220.5" stroke="#593838" stroke-width="8"/>
<path d="M157.557 93.4209C157.536 91.5598 159.028 90.0343 160.889 90.0137V90.0137C162.75 89.9931 164.276 91.4853 164.297 93.3464L165.74 223.926L159 224L157.557 93.4209Z" fill="#593838"/>
<path d="M217.816 121.383L177.816 110.078C175.901 109.537 174 110.976 174 112.965V156.477C174 157.935 175.049 159.182 176.486 159.432L216.486 166.389C218.321 166.708 220 165.296 220 163.433V124.27C220 122.927 219.108 121.748 217.816 121.383Z" stroke="#593838" stroke-width="4"/>
<path d="M217 212H177C175.343 212 174 210.657 174 209V165.529C174 163.679 175.657 162.27 177.483 162.568L217.483 169.09C218.934 169.326 220 170.58 220 172.05V209C220 210.657 218.657 212 217 212Z" stroke="#593838" stroke-width="4"/>
<path d="M114 225V233.815C114 234.746 114.754 235.5 115.685 235.5C116.458 235.5 117.132 234.974 117.319 234.224L118.782 228.372C118.924 227.805 119.24 227.297 119.686 226.919C121.67 225.241 120.483 222 117.884 222H117C115.343 222 114 223.343 114 225Z" fill="#593838" stroke="#593838" stroke-width="3"/>
<path d="M156 93.3333L161.243 90.5973C161.973 90.216 162.828 90.152 163.608 90.4204L174 94" stroke="#593838" stroke-width="2"/>
<path d="M174 112.965V208C174 209.657 175.343 211 177 211H217C218.657 211 220 209.657 220 208V124.27C220 122.927 219.108 121.748 217.816 121.383L177.816 110.078C175.901 109.537 174 110.976 174 112.965Z" stroke="#593838" stroke-width="5"/>
<path d="M36.496 296.488C36.496 298.92 36.976 300.648 37.936 301.672C38.96 302.632 40.304 303.112 41.968 303.112C43.632 303.112 44.944 302.632 45.904 301.672C46.928 300.648 47.44 298.92 47.44 296.488V285.256C47.44 282.824 46.928 281.096 45.904 280.072C44.944 279.048 43.632 278.536 41.968 278.536C40.304 278.536 38.96 279.048 37.936 280.072C36.976 281.096 36.496 282.824 36.496 285.256V296.488ZM41.968 312.808C40.752 312.808 39.632 312.616 38.608 312.232C37.584 311.784 36.656 311.208 35.824 310.504V310.696C35.824 311.72 36.016 312.776 36.4 313.864C36.784 314.888 37.904 315.912 39.76 316.936L39.856 317.032C42.032 318.248 43.984 319.688 45.712 321.352C47.504 322.952 49.008 324.648 50.224 326.44C51.504 328.168 52.496 329.96 53.2 331.816C53.968 333.608 54.416 335.336 54.544 337H43.888C43.184 334.44 42.064 332.296 40.528 330.568C38.992 328.776 37.264 327.368 35.344 326.344C33.488 325.32 31.536 324.616 29.488 324.232C27.44 323.848 25.52 323.752 23.728 323.944V313.384C24.176 313.32 24.624 313.288 25.072 313.288C25.52 313.288 25.968 313.288 26.416 313.288C26.032 312.264 25.84 311.08 25.84 309.736V285.928C25.84 280.488 27.216 276.296 29.968 273.352C32.784 270.408 36.784 268.936 41.968 268.936C47.152 268.936 51.12 270.408 53.872 273.352C56.624 276.296 58 280.488 58 285.928V295.816C58 301.256 56.624 305.448 53.872 308.392C51.12 311.336 47.152 312.808 41.968 312.808ZM87.2838 306.76C87.2838 304.328 86.7718 302.632 85.7478 301.672C84.7878 300.648 83.4758 300.136 81.8118 300.136C80.1478 300.136 78.8038 300.648 77.7798 301.672C76.8198 302.632 76.3398 304.328 76.3398 306.76V321.448C76.3398 323.88 76.8198 325.608 77.7798 326.632C78.8038 327.656 80.1478 328.168 81.8118 328.168C83.4758 328.168 84.7878 327.656 85.7478 326.632C86.7718 325.608 87.2838 323.88 87.2838 321.448V306.76ZM88.7238 291.592C91.7318 292.68 94.0038 294.568 95.5398 297.256C97.1398 299.944 97.9398 303.336 97.9398 307.432V320.776C97.9398 326.216 96.5318 330.408 93.7158 333.352C90.9638 336.232 86.9958 337.672 81.8118 337.672C76.5638 337.672 72.5638 336.232 69.8118 333.352C67.0598 330.408 65.6838 326.216 65.6838 320.776V307.432C65.6838 302.824 66.6438 299.144 68.5638 296.392C70.5478 293.64 73.3958 291.848 77.1078 291.016C77.6198 290.184 78.2598 289.448 79.0278 288.808C79.8598 288.168 80.6278 287.56 81.3318 286.984C82.0998 286.344 82.7398 285.704 83.2518 285.064C83.7638 284.424 84.0198 283.656 84.0198 282.76V282.568C84.0198 281.288 83.7958 280.328 83.3478 279.688C82.9638 279.048 82.2278 278.728 81.1398 278.728C80.0518 278.728 79.2838 279.016 78.8358 279.592C78.4518 280.168 78.2598 281.16 78.2598 282.568V284.104H68.3718V282.568C68.3718 278.216 69.4598 274.888 71.6358 272.584C73.8758 270.216 77.0438 269.032 81.1398 269.032C85.1718 269.032 88.3078 270.248 90.5478 272.68C92.7878 275.048 93.9078 278.344 93.9078 282.568V282.856C93.9078 284.136 93.7158 285.224 93.3318 286.12C92.9478 286.952 92.4998 287.688 91.9878 288.328C91.4758 288.968 90.8998 289.544 90.2598 290.056C89.6838 290.568 89.1718 291.08 88.7238 291.592ZM123.477 273.832C123.477 275.048 123.829 276.168 124.533 277.192C125.237 278.216 126.101 279.24 127.125 280.264C128.213 281.288 129.365 282.376 130.581 283.528C131.861 284.68 133.013 285.96 134.037 287.368C135.125 288.712 136.021 290.28 136.725 292.072C137.429 293.8 137.781 295.816 137.781 298.12V320.776C137.781 326.216 136.405 330.408 133.653 333.352C130.901 336.232 126.933 337.672 121.749 337.672C116.501 337.672 112.501 336.232 109.749 333.352C106.997 330.408 105.621 326.216 105.621 320.776V313H116.181V321.448C116.181 323.88 116.661 325.608 117.621 326.632C118.645 327.656 120.021 328.168 121.749 328.168C123.413 328.168 124.725 327.656 125.685 326.632C126.709 325.608 127.221 323.88 127.221 321.448V298.12C127.221 296.136 126.453 294.28 124.917 292.552C123.445 290.824 121.813 289.096 120.021 287.368C118.229 285.576 116.565 283.752 115.029 281.896C113.557 280.04 112.821 277.992 112.821 275.752V269.704H123.477V273.832ZM167.065 310.792C167.065 308.36 166.553 306.632 165.529 305.608C164.569 304.584 163.257 304.072 161.593 304.072C159.929 304.072 158.585 304.584 157.561 305.608C156.601 306.632 156.121 308.36 156.121 310.792V321.448C156.121 323.88 156.601 325.608 157.561 326.632C158.585 327.656 159.929 328.168 161.593 328.168C163.257 328.168 164.569 327.656 165.529 326.632C166.553 325.608 167.065 323.88 167.065 321.448V310.792ZM161.881 269.032C167.129 269.032 171.065 270.504 173.689 273.448C176.377 276.392 177.721 280.584 177.721 286.024V320.776C177.721 326.216 176.345 330.408 173.593 333.352C170.841 336.232 166.841 337.672 161.593 337.672C156.345 337.672 152.345 336.232 149.593 333.352C146.841 330.408 145.465 326.216 145.465 320.776V311.464C145.465 308.392 145.881 305.8 146.713 303.688C147.609 301.512 148.761 299.752 150.169 298.408C151.577 297.064 153.177 296.072 154.969 295.432C156.825 294.792 158.713 294.472 160.633 294.472C163.577 294.472 165.721 295.208 167.065 296.68V285.352C167.065 282.92 166.553 281.224 165.529 280.264C164.569 279.24 163.257 278.728 161.593 278.728C159.929 278.728 158.585 279.24 157.561 280.264C156.601 281.224 156.121 282.92 156.121 285.352V288.616H146.041V286.024C146.041 280.584 147.353 276.392 149.977 273.448C152.665 270.504 156.633 269.032 161.881 269.032ZM201.531 269.032C206.779 269.032 210.779 270.504 213.531 273.448C216.283 276.392 217.659 280.584 217.659 286.024V320.776C217.659 326.216 216.283 330.408 213.531 333.352C210.779 336.232 206.779 337.672 201.531 337.672C196.283 337.672 192.283 336.232 189.531 333.352C186.779 330.408 185.403 326.216 185.403 320.776V313H196.059V321.448C196.059 323.88 196.539 325.608 197.499 326.632C198.523 327.592 199.867 328.072 201.531 328.072C203.195 328.072 204.507 327.592 205.467 326.632C206.491 325.608 207.003 323.88 207.003 321.448V285.352C207.003 282.92 206.491 281.192 205.467 280.168C204.507 279.144 203.195 278.632 201.531 278.632C199.867 278.632 198.523 279.144 197.499 280.168C196.539 281.192 196.059 282.92 196.059 285.352V291.784H185.403V286.024C185.403 280.584 186.779 276.392 189.531 273.448C192.283 270.504 196.283 269.032 201.531 269.032ZM225.34 337V285.928C225.34 280.488 226.652 276.296 229.276 273.352C231.964 270.408 235.9 268.936 241.084 268.936C242.044 268.936 243.036 269 244.06 269.128C245.148 269.256 246.268 269.384 247.42 269.512C248.572 269.576 249.724 269.608 250.876 269.608C252.092 269.608 253.276 269.48 254.428 269.224V278.536C253.596 278.792 252.572 278.952 251.356 279.016C250.14 279.016 248.892 278.984 247.612 278.92C246.396 278.856 245.212 278.792 244.06 278.728C242.908 278.6 242.012 278.536 241.372 278.536C239.772 278.536 238.46 279.048 237.436 280.072C236.412 281.096 235.9 282.824 235.9 285.256V296.488C236.604 295.848 237.468 295.336 238.492 294.952C239.58 294.504 240.86 294.28 242.332 294.28C244.252 294.28 246.108 294.6 247.9 295.24C249.756 295.88 251.388 296.904 252.796 298.312C254.204 299.656 255.324 301.416 256.156 303.592C257.052 305.704 257.5 308.264 257.5 311.272V337H246.94V310.6C246.94 308.168 246.428 306.472 245.404 305.512C244.444 304.488 243.1 303.976 241.372 303.976C239.708 303.976 238.364 304.488 237.34 305.512C236.38 306.472 235.9 308.168 235.9 310.6V337H225.34ZM265.184 337V285.928C265.184 280.488 266.56 276.296 269.312 273.352C272.064 270.408 276.032 268.936 281.216 268.936C286.464 268.936 290.464 270.408 293.216 273.352C295.968 276.296 297.344 280.488 297.344 285.928V337H286.784V285.256C286.784 282.824 286.272 281.096 285.248 280.072C284.288 279.048 282.944 278.536 281.216 278.536C279.552 278.536 278.208 279.048 277.184 280.072C276.224 281.096 275.744 282.824 275.744 285.256V337H265.184Z" fill="#593838"/>
</g>
<defs>
<clipPath id="clip0_6_2">
<rect width="341" height="374" fill="white"/>
</clipPath>
</defs>
</svg>
