<svg width="341" height="374" viewBox="0 0 341 374" fill="none" xmlns="http://www.w3.org/2000/svg">
<g clip-path="url(#clip0_3_4)">
<rect width="341" height="374" fill="white"/>
<rect width="341" height="374" fill="#F8F2EB"/>
<path d="M163.5 91.5L164.5 92.5" stroke="#593838" stroke-width="2"/>
<path d="M160.5 232.5V228.862C160.5 228.036 160.008 227.289 159.248 226.964C157.184 226.079 157.816 223 160.062 223H166.719C168.906 223 169.602 225.949 167.646 226.927C166.944 227.278 166.5 227.996 166.5 228.781V232.5C166.5 234.157 165.157 235.5 163.5 235.5C161.843 235.5 160.5 234.157 160.5 232.5Z" fill="#593838" stroke="#593838" stroke-width="3"/>
<path d="M228 230.5V223C228 221.343 226.657 220 225 220H220.733C218.059 220 217.208 223.604 219.599 224.8C220.458 225.229 221 226.106 221 227.066V230.5C221 232.157 222.343 233.5 224 233.5H225C226.657 233.5 228 232.157 228 230.5Z" fill="#593838" stroke="#593838" stroke-width="3"/>
<path d="M227 218H113C111.895 218 111 218.895 111 220C111 221.105 111.895 222 113 222H227C228.105 222 229 221.105 229 220C229 218.895 228.105 218 227 218Z" fill="#593838" stroke="#593838" stroke-width="3"/>
<path d="M209.5 197V188L189 185V191L197.5 192.5" stroke="#593838" stroke-width="4"/>
<path d="M209.5 149V138.5L187.5 131V138.5L198 142.5" stroke="black"/>
<path d="M209.5 149V138.5L187.5 131V138.5L198 142.5" stroke="#593838" stroke-width="4"/>
<ellipse cx="170" cy="243.5" rx="90" ry="12.5" fill="#593838"/>
<path d="M157.596 93.3314L112.596 117.155C111.614 117.675 111 118.695 111 119.806V219C111 220.657 112.343 222 114 222H159C160.657 222 162 220.657 162 219V95.9827C162 93.722 159.594 92.2736 157.596 93.3314Z" stroke="#593838" stroke-width="4"/>
<path d="M225.5 222H166.5C164.843 222 163.5 220.657 163.5 219V95.6522C163.5 93.6074 165.501 92.1618 167.442 92.8039L226.442 112.319C227.67 112.726 228.5 113.874 228.5 115.168V219C228.5 220.657 227.157 222 225.5 222Z" stroke="#593838" stroke-width="4"/>
<path d="M142.5 101V220.5" stroke="#593838" stroke-width="8"/>
<path d="M157.557 93.4209C157.536 91.5598 159.028 90.0343 160.889 90.0137C162.75 89.9931 164.276 91.4853 164.297 93.3464L165.74 223.926L159 224L157.557 93.4209Z" fill="#593838"/>
<path d="M217.816 121.383L177.816 110.078C175.901 109.537 174 110.976 174 112.965V156.477C174 157.935 175.049 159.182 176.486 159.432L216.486 166.389C218.321 166.708 220 165.296 220 163.433V124.27C220 122.927 219.108 121.748 217.816 121.383Z" stroke="#593838" stroke-width="4"/>
<path d="M217 212H177C175.343 212 174 210.657 174 209V165.529C174 163.679 175.657 162.27 177.483 162.568L217.483 169.09C218.934 169.326 220 170.58 220 172.05V209C220 210.657 218.657 212 217 212Z" stroke="#593838" stroke-width="4"/>
<path d="M114 225V233.815C114 234.746 114.754 235.5 115.685 235.5C116.458 235.5 117.132 234.974 117.319 234.224L118.782 228.372C118.924 227.805 119.24 227.297 119.686 226.919C121.67 225.241 120.483 222 117.884 222H117C115.343 222 114 223.343 114 225Z" fill="#593838" stroke="#593838" stroke-width="3"/>
<path d="M156 93.3333L161.243 90.5973C161.973 90.216 162.828 90.152 163.608 90.4204L174 94" stroke="#593838" stroke-width="2"/>
<path d="M174 112.965V208C174 209.657 175.343 211 177 211H217C218.657 211 220 209.657 220 208V124.27C220 122.927 219.108 121.748 217.816 121.383L177.816 110.078C175.901 109.537 174 110.976 174 112.965Z" stroke="#593838" stroke-width="5"/>
<path d="M61.696 270.832C61.696 272.048 62.048 273.168 62.752 274.192C63.456 275.216 64.32 276.24 65.344 277.264C66.432 278.288 67.584 279.376 68.8 280.528C70.08 281.68 71.232 282.96 72.256 284.368C73.344 285.712 74.24 287.28 74.944 289.072C75.648 290.8 76 292.816 76 295.12V317.776C76 323.216 74.624 327.408 71.872 330.352C69.12 333.232 65.152 334.672 59.968 334.672C54.72 334.672 50.72 333.232 47.968 330.352C45.216 327.408 43.84 323.216 43.84 317.776V310H54.4V318.448C54.4 320.88 54.88 322.608 55.84 323.632C56.864 324.656 58.24 325.168 59.968 325.168C61.632 325.168 62.944 324.656 63.904 323.632C64.928 322.608 65.44 320.88 65.44 318.448V295.12C65.44 293.136 64.672 291.28 63.136 289.552C61.664 287.824 60.032 286.096 58.24 284.368C56.448 282.576 54.784 280.752 53.248 278.896C51.776 277.04 51.04 274.992 51.04 272.752V266.704H61.696V270.832ZM130.846 284.08C130.846 285.36 130.718 286.672 130.462 288.016C130.27 289.296 129.918 290.48 129.406 291.568C128.958 292.656 128.35 293.616 127.582 294.448C126.878 295.28 126.014 295.888 124.99 296.272C126.014 296.656 126.878 297.264 127.582 298.096C128.35 298.928 128.958 299.92 129.406 301.072C129.918 302.16 130.27 303.344 130.462 304.624C130.718 305.904 130.846 307.184 130.846 308.464V317.776C130.846 323.216 129.438 327.408 126.622 330.352C123.87 333.232 119.902 334.672 114.718 334.672C109.47 334.672 105.47 333.232 102.718 330.352C99.966 327.408 98.59 323.216 98.59 317.776V310H109.246V318.448C109.246 320.88 109.726 322.608 110.686 323.632C111.71 324.656 113.054 325.168 114.718 325.168C116.382 325.168 117.694 324.656 118.654 323.632C119.678 322.608 120.19 320.88 120.19 318.448V307.792C120.19 305.36 119.678 303.632 118.654 302.608C117.694 301.584 116.382 301.072 114.718 301.072H112.798V291.472H114.718C116.382 291.472 117.694 290.96 118.654 289.936C119.678 288.912 120.19 287.184 120.19 284.752V282.352C120.19 279.92 119.678 278.224 118.654 277.264C117.694 276.24 116.382 275.728 114.718 275.728C113.054 275.728 111.71 276.24 110.686 277.264C109.726 278.224 109.246 279.92 109.246 282.352V285.616H98.59V283.024C98.59 277.584 99.966 273.392 102.718 270.448C105.47 267.504 109.47 266.032 114.718 266.032C119.902 266.032 123.87 267.504 126.622 270.448C129.438 273.392 130.846 277.584 130.846 283.024V284.08ZM169.562 266.032C174.81 266.032 178.81 267.504 181.562 270.448C184.314 273.392 185.69 277.584 185.69 283.024V317.776C185.69 323.216 184.314 327.408 181.562 330.352C178.81 333.232 174.81 334.672 169.562 334.672C164.314 334.672 160.314 333.232 157.562 330.352C154.81 327.408 153.434 323.216 153.434 317.776V310H164.09V318.448C164.09 320.88 164.57 322.608 165.53 323.632C166.554 324.592 167.898 325.072 169.562 325.072C171.226 325.072 172.538 324.592 173.498 323.632C174.522 322.608 175.034 320.88 175.034 318.448V282.352C175.034 279.92 174.522 278.192 173.498 277.168C172.538 276.144 171.226 275.632 169.562 275.632C167.898 275.632 166.554 276.144 165.53 277.168C164.57 278.192 164.09 279.92 164.09 282.352V288.784H153.434V283.024C153.434 277.584 154.81 273.392 157.562 270.448C160.314 267.504 164.314 266.032 169.562 266.032ZM228.534 291.856C232.438 292.56 235.382 294.352 237.366 297.232C239.414 300.048 240.438 303.792 240.438 308.464V317.776C240.438 323.216 239.062 327.408 236.31 330.352C233.558 333.232 229.59 334.672 224.406 334.672C219.158 334.672 215.158 333.232 212.406 330.352C209.654 327.408 208.278 323.216 208.278 317.776V310H218.838V318.448C218.838 320.88 219.35 322.608 220.374 323.632C221.398 324.656 222.742 325.168 224.406 325.168C226.07 325.168 227.382 324.656 228.342 323.632C229.366 322.608 229.878 320.88 229.878 318.448V307.792C229.878 305.36 229.366 303.664 228.342 302.704C227.382 301.68 226.07 301.168 224.406 301.168H217.878V284.464L208.854 282.352V271.792L217.878 274.576V266.704H228.534V277.264L237.462 279.28V289.84L228.534 286.96V291.856ZM263.028 334V282.928C263.028 277.488 264.404 273.296 267.156 270.352C269.908 267.408 273.876 265.936 279.06 265.936C284.308 265.936 288.308 267.408 291.06 270.352C293.812 273.296 295.188 277.488 295.188 282.928V334H284.628V282.256C284.628 279.824 284.116 278.096 283.092 277.072C282.132 276.048 280.788 275.536 279.06 275.536C277.396 275.536 276.052 276.048 275.028 277.072C274.068 278.096 273.588 279.824 273.588 282.256V334H263.028Z" fill="#593838"/>
</g>
<defs>
<clipPath id="clip0_3_4">
<rect width="341" height="374" fill="white"/>
</clipPath>
</defs>
</svg>
